<?xml version="1.0" encoding="UTF-8" standalone="no"?>
<svg width="48px" height="48px" viewBox="0 0 48 48" version="1.1" xmlns="http://www.w3.org/2000/svg" xmlns:xlink="http://www.w3.org/1999/xlink">
    <!-- Generator: Sketch 39.1 (31720) - http://www.bohemiancoding.com/sketch -->
    <title>loading</title>
    <desc>Created with Sketch.</desc>
    <defs></defs>
    <g id="Page-1" stroke="none" stroke-width="1" fill="none" fill-rule="evenodd">
        <path d="M26.8797711,7.5 C27.0999972,5.79266627 27.0134798,4.22809621 26.6547056,3.01318419 C26.1359995,1.4771158 25.166404,0.5 23.9998533,0.5 C22.8552833,0.5 21.8990538,1.44064027 21.372782,2.9269526 C20.9914024,4.15363071 20.894463,5.7519919 21.1199356,7.5 C21.6186035,11.3659932 22.9079866,14.5 23.9998533,14.5 C25.0917201,14.5 26.3811032,11.3659932 26.8797711,7.5 Z" id="Oval" fill="#D8D8D8"></path>
        <path d="M35.9778473,10.0621778 C36.1980734,8.35484409 36.111556,6.79027404 35.7527819,5.57536202 C35.2340757,4.03929363 34.2644802,3.06217783 33.0979296,3.06217783 C31.9533595,3.06217783 30.99713,4.00281809 30.4708582,5.48913043 C30.0894786,6.71580854 29.9925392,8.31416972 30.2180118,10.0621778 C30.7166797,13.9281711 32.0060628,17.0621778 33.0979296,17.0621778 C34.1897963,17.0621778 35.4791794,13.9281711 35.9778473,10.0621778 Z" id="Oval" fill="#D8D8D8" transform="translate(33.098076, 10.062178) rotate(30.000000) translate(-33.098076, -10.062178) "></path>
        <path d="M41.4419489,16.0980762 C41.662175,14.3907425 41.5756576,12.8261724 41.2168835,11.6112604 C40.6981774,10.075192 39.7285818,9.09807621 38.5620312,9.09807621 C37.4174612,9.09807621 36.4612316,10.0387165 35.9349598,11.5250288 C35.5535802,12.7517069 35.4566408,14.3500681 35.6821134,16.0980762 C36.1807813,19.9640695 37.4701644,23.0980762 38.5620312,23.0980762 C39.6538979,23.0980762 40.943281,19.9640695 41.4419489,16.0980762 Z" id="Oval" fill="#D8D8D8" transform="translate(38.562178, 16.098076) rotate(60.000000) translate(-38.562178, -16.098076) "></path>
        <path d="M43.3797711,24 C43.5999972,22.2926663 43.5134798,20.7280962 43.1547056,19.5131842 C42.6359995,17.9771158 41.666404,17 40.4998533,17 C39.3552833,17 38.3990538,17.9406403 37.872782,19.4269526 C37.4914024,20.6536307 37.394463,22.2519919 37.6199356,24 C38.1186035,27.8659932 39.4079866,31 40.4998533,31 C41.5917201,31 42.8811032,27.8659932 43.3797711,24 Z" id="Oval" fill="#D8D8D8" transform="translate(40.500000, 24.000000) rotate(90.000000) translate(-40.500000, -24.000000) "></path>
        <path d="M41.4419489,32.0980762 C41.662175,30.3907425 41.5756576,28.8261724 41.2168835,27.6112604 C40.6981774,26.075192 39.7285818,25.0980762 38.5620312,25.0980762 C37.4174612,25.0980762 36.4612316,26.0387165 35.9349598,27.5250288 C35.5535802,28.7517069 35.4566408,30.3500681 35.6821134,32.0980762 C36.1807813,35.9640695 37.4701644,39.0980762 38.5620312,39.0980762 C39.6538979,39.0980762 40.943281,35.9640695 41.4419489,32.0980762 Z" id="Oval" fill="#D8D8D8" transform="translate(38.562178, 32.098076) rotate(120.000000) translate(-38.562178, -32.098076) "></path>
        <path d="M35.7228375,38.0621778 C35.9522397,36.3548441 35.8621174,34.790274 35.4883944,33.575362 C34.9480755,32.0392936 33.9380802,31.0621778 32.7229233,31.0621778 C31.5306629,31.0621778 30.5345905,32.0028181 29.9863908,33.4891304 C29.5891204,34.7158085 29.4881419,36.3141697 29.7230091,38.0621778 C30.2424548,41.9281711 31.5855622,45.0621778 32.7229233,45.0621778 C33.8602845,45.0621778 35.2033918,41.9281711 35.7228375,38.0621778 Z" id="Oval" fill="#D8D8D8" transform="translate(32.598076, 38.062178) rotate(150.000000) translate(-32.598076, -38.062178) "></path>
        <path d="M26.8797711,40.5 C27.0999972,38.7926663 27.0134798,37.2280962 26.6547056,36.0131842 C26.1359995,34.4771158 25.166404,33.5 23.9998533,33.5 C22.8552833,33.5 21.8990538,34.4406403 21.372782,35.9269526 C20.9914024,37.1536307 20.894463,38.7519919 21.1199356,40.5 C21.6186035,44.3659932 22.9079866,47.5 23.9998533,47.5 C25.0917201,47.5 26.3811032,44.3659932 26.8797711,40.5 Z" id="Oval" fill="#D8D8D8" transform="translate(24.000000, 40.500000) rotate(180.000000) translate(-24.000000, -40.500000) "></path>
        <path d="M18.9778473,38.5621778 C19.1980734,36.8548441 19.111556,35.290274 18.7527819,34.075362 C18.2340757,32.5392936 17.2644802,31.5621778 16.0979296,31.5621778 C14.9533595,31.5621778 13.99713,32.5028181 13.4708582,33.9891304 C13.0894786,35.2158085 12.9925392,36.8141697 13.2180118,38.5621778 C13.7166797,42.4281711 15.0060628,45.5621778 16.0979296,45.5621778 C17.1897963,45.5621778 18.4791794,42.4281711 18.9778473,38.5621778 Z" id="Oval" fill="#D8D8D8" transform="translate(16.098076, 38.562178) rotate(210.000000) translate(-16.098076, -38.562178) "></path>
        <path d="M12.4419489,32.0980762 C12.662175,30.3907425 12.5756576,28.8261724 12.2168835,27.6112604 C11.6981774,26.075192 10.7285818,25.0980762 9.56203117,25.0980762 C8.41746116,25.0980762 7.46123161,26.0387165 6.93495984,27.5250288 C6.55358024,28.7517069 6.45664084,30.3500681 6.68211343,32.0980762 C7.18078132,35.9640695 8.47016442,39.0980762 9.56203117,39.0980762 C10.6538979,39.0980762 11.943281,35.9640695 12.4419489,32.0980762 Z" id="Oval" fill="#D8D8D8" transform="translate(9.562178, 32.098076) rotate(240.000000) translate(-9.562178, -32.098076) "></path>
        <path d="M10.3797711,24 C10.5999972,22.2926663 10.5134798,20.7280962 10.1547056,19.5131842 C9.63599953,17.9771158 8.666404,17 7.49985335,17 C6.35528333,17 5.39905379,17.9406403 4.87278201,19.4269526 C4.49140241,20.6536307 4.39446302,22.2519919 4.61993561,24 C5.1186035,27.8659932 6.40798659,31 7.49985335,31 C8.59172011,31 9.8811032,27.8659932 10.3797711,24 Z" id="Oval" fill="#D8D8D8" transform="translate(7.500000, 24.000000) rotate(270.000000) translate(-7.500000, -24.000000) "></path>
        <path d="M12.4419489,16.0980762 C12.662175,14.3907425 12.5756576,12.8261724 12.2168835,11.6112604 C11.6981774,10.075192 10.7285818,9.09807621 9.56203117,9.09807621 C8.41746116,9.09807621 7.46123161,10.0387165 6.93495984,11.5250288 C6.55358024,12.7517069 6.45664084,14.3500681 6.68211343,16.0980762 C7.18078132,19.9640695 8.47016442,23.0980762 9.56203117,23.0980762 C10.6538979,23.0980762 11.943281,19.9640695 12.4419489,16.0980762 Z" id="Oval" fill="#D8D8D8" transform="translate(9.562178, 16.098076) rotate(300.000000) translate(-9.562178, -16.098076) "></path>
        <path d="M18.9778473,9.56217783 C19.1980734,7.85484409 19.111556,6.29027404 18.7527819,5.07536202 C18.2340757,3.53929363 17.2644802,2.56217783 16.0979296,2.56217783 C14.9533595,2.56217783 13.99713,3.50281809 13.4708582,4.98913043 C13.0894786,6.21580854 12.9925392,7.81416972 13.2180118,9.56217783 C13.7166797,13.4281711 15.0060628,16.5621778 16.0979296,16.5621778 C17.1897963,16.5621778 18.4791794,13.4281711 18.9778473,9.56217783 Z" id="Oval" fill="#D8D8D8" transform="translate(16.098076, 9.562178) rotate(330.000000) translate(-16.098076, -9.562178) "></path>
    </g>
</svg>